<svg id="katman_1" data-name="katman 1" xmlns="http://www.w3.org/2000/svg" width="695.94" height="129.9" viewBox="0 0 695.94 129.9">
  <g id="Group_2" data-name="Group 2">
    <path id="Path_1" data-name="Path 1" d="M265.7,34.36a30.922,30.922,0,0,1,30.92,30.92V96.2H282.88V65.28a17.165,17.165,0,1,0-6.87,13.75V94.45A30.924,30.924,0,1,1,265.7,34.37Z" fill="#03014b" fill-rule="evenodd"/>
    <path id="Path_2" data-name="Path 2" d="M457.85,96.2a30.916,30.916,0,0,0,30.92-30.92V0L475.03,13.74V65.28a17.165,17.165,0,1,1-6.87-13.75V36.11a30.924,30.924,0,1,0-10.31,60.08Z" fill="#03014b" fill-rule="evenodd"/>
    <path id="Path_3" data-name="Path 3" d="M30.92,96.2A30.916,30.916,0,0,0,61.84,65.28V0L48.1,13.74V65.28a17.165,17.165,0,1,1-6.87-13.75V36.11A30.928,30.928,0,1,0,30.92,96.2Z" fill="#03014b" fill-rule="evenodd"/>
    <path id="Path_4" data-name="Path 4" d="M695.94,65.28a30.92,30.92,0,1,0-61.84,0V96.2h13.74V65.28a17.18,17.18,0,1,1,34.36,0V96.2h13.74Z" fill="#03014b" fill-rule="evenodd"/>
    <path id="Path_5" data-name="Path 5" d="M361.77,45.85A30.918,30.918,0,0,0,306.8,65.28V96.2h13.74V65.28a17.18,17.18,0,1,1,34.36,0V96.2h13.74V65.28a17.18,17.18,0,1,1,34.36,0V96.2h13.74V65.28a30.918,30.918,0,0,0-54.97-19.43Z" fill="#03014b" fill-rule="evenodd"/>
    <path id="Path_6" data-name="Path 6" d="M525.42,34.36A30.92,30.92,0,1,1,494.5,65.28a30.922,30.922,0,0,1,30.92-30.92Zm0,13.74A17.18,17.18,0,1,0,542.6,65.28,17.178,17.178,0,0,0,525.42,48.1Z" fill="#03014b" fill-rule="evenodd"/>
    <path id="Path_7" data-name="Path 7" d="M123.83,43.41A30.922,30.922,0,0,0,71.04,65.27V96.19H84.78V65.27a17.183,17.183,0,0,1,29.33-12.15l9.72-9.72Z" fill="#03014b" fill-rule="evenodd"/>
    <path id="Path_8" data-name="Path 8" d="M564.3,65.28a30.92,30.92,0,0,0,32.83,30.86c16.52-.99,29.01-15.52,29.01-32.07V34.75a.165.165,0,0,0-.28-.12L612.45,48.04a.276.276,0,0,0-.05.12V64.39c0,9.05-6.61,17.2-15.63,17.99a17.178,17.178,0,0,1-18.72-17.11V34.75a.165.165,0,0,0-.28-.12L564.36,48.04a.276.276,0,0,0-.05.12V65.27Z" fill="#03014b" fill-rule="evenodd"/>
    <circle id="Ellipse_1" data-name="Ellipse 1" cx="6.62" cy="6.62" r="6.62" transform="translate(100.6 82.96)" fill="#03014b"/>
    <g id="Group_1" data-name="Group 1">
      <path id="Path_9" data-name="Path 9" d="M286.54,112.87v2.16h-4.49v14.71h-2.77V115.03h-4.51v-2.16Z" fill="#03014b"/>
      <path id="Path_10" data-name="Path 10" d="M292.69,128.8a8.193,8.193,0,0,1-3.13-3.08,9.165,9.165,0,0,1,0-8.89,8.238,8.238,0,0,1,3.13-3.07,8.688,8.688,0,0,1,4.33-1.1,8.908,8.908,0,0,1,4.36,1.1,8.142,8.142,0,0,1,3.12,3.07,9.236,9.236,0,0,1,0,8.89,8.03,8.03,0,0,1-3.12,3.08,9.131,9.131,0,0,1-8.69,0Zm7.31-2.16a5.339,5.339,0,0,0,2.05-2.16,6.8,6.8,0,0,0,.74-3.22,6.689,6.689,0,0,0-.74-3.2,5.35,5.35,0,0,0-2.05-2.14,6.315,6.315,0,0,0-5.97,0,5.225,5.225,0,0,0-2.05,2.14,6.717,6.717,0,0,0-.74,3.2,6.827,6.827,0,0,0,.74,3.22,5.339,5.339,0,0,0,2.05,2.16,5.8,5.8,0,0,0,2.98.76A5.859,5.859,0,0,0,300,126.64Z" fill="#03014b"/>
      <path id="Path_11" data-name="Path 11" d="M308.58,116.82a8.238,8.238,0,0,1,3.13-3.07,8.688,8.688,0,0,1,4.33-1.1,8.8,8.8,0,0,1,4.79,1.32,7.516,7.516,0,0,1,3.05,3.75h-3.32a4.484,4.484,0,0,0-1.82-1.91,5.46,5.46,0,0,0-2.69-.64,5.864,5.864,0,0,0-2.98.75,5.225,5.225,0,0,0-2.05,2.14,6.717,6.717,0,0,0-.74,3.2,6.827,6.827,0,0,0,.74,3.22,5.251,5.251,0,0,0,2.05,2.15,5.89,5.89,0,0,0,2.98.75,5.313,5.313,0,0,0,3.68-1.27,5.388,5.388,0,0,0,1.71-3.46h-6.33v-2.16h9.3v2.16a8.336,8.336,0,0,1-8.36,7.23,8.75,8.75,0,0,1-4.34-1.1,8.282,8.282,0,0,1-3.12-3.07,9.146,9.146,0,0,1,0-8.88Z" fill="#03014b"/>
      <path id="Path_12" data-name="Path 12" d="M329.88,115v5.12h5.83v2.14h-5.83v5.32h6.55v2.16h-9.32V112.85h9.32v2.16h-6.55Z" fill="#03014b"/>
      <path id="Path_13" data-name="Path 13" d="M350.73,112.87v2.16h-4.49v14.71h-2.77V115.03h-4.51v-2.16Z" fill="#03014b"/>
      <path id="Path_14" data-name="Path 14" d="M366.99,112.87v16.87h-2.77v-7.45h-7.94v7.45h-2.77V112.87h2.77v7.28h7.94v-7.28Z" fill="#03014b"/>
      <path id="Path_15" data-name="Path 15" d="M373.4,115v5.12h5.83v2.14H373.4v5.32h6.55v2.16h-9.32V112.85h9.32v2.16H373.4Z" fill="#03014b"/>
      <path id="Path_16" data-name="Path 16" d="M392.11,129.73l-3.88-6.75h-2.11v6.75h-2.77V112.86h5.83a7.308,7.308,0,0,1,3.29.68,4.646,4.646,0,0,1,2.01,1.82,5,5,0,0,1,.67,2.55,5.058,5.058,0,0,1-.96,3,4.834,4.834,0,0,1-2.95,1.83l4.17,6.99h-3.3Zm-6-8.93h3.06a3.178,3.178,0,0,0,2.34-.78,2.813,2.813,0,0,0,.79-2.11,2.854,2.854,0,0,0-.78-2.12,3.226,3.226,0,0,0-2.35-.76h-3.06v5.78Z" fill="#03014b"/>
      <path id="Path_17" data-name="Path 17" d="M416.86,112.87v2.16h-4.49v14.71H409.6V115.03h-4.51v-2.16Z" fill="#03014b"/>
      <path id="Path_18" data-name="Path 18" d="M423.02,128.8a8.193,8.193,0,0,1-3.13-3.08,9.165,9.165,0,0,1,0-8.89,8.238,8.238,0,0,1,3.13-3.07,8.688,8.688,0,0,1,4.33-1.1,8.908,8.908,0,0,1,4.36,1.1,8.073,8.073,0,0,1,3.12,3.07,9.236,9.236,0,0,1,0,8.89,8.03,8.03,0,0,1-3.12,3.08,8.853,8.853,0,0,1-4.36,1.1A8.739,8.739,0,0,1,423.02,128.8Zm7.31-2.16a5.339,5.339,0,0,0,2.05-2.16,6.8,6.8,0,0,0,.74-3.22,6.689,6.689,0,0,0-.74-3.2,5.35,5.35,0,0,0-2.05-2.14,6.335,6.335,0,0,0-5.98,0,5.225,5.225,0,0,0-2.05,2.14,6.717,6.717,0,0,0-.74,3.2,6.827,6.827,0,0,0,.74,3.22,5.339,5.339,0,0,0,2.05,2.16,6.262,6.262,0,0,0,5.98,0Z" fill="#03014b"/>
      <path id="Path_19" data-name="Path 19" d="M460.65,112.87l-5,16.87h-3.13l-3.54-12.77-3.76,12.77-3.11.02-4.78-16.89h2.94l3.5,13.74,3.79-13.74h3.11l3.52,13.66,3.52-13.66h2.96Z" fill="#03014b"/>
      <path id="Path_20" data-name="Path 20" d="M473.1,126.29h-7.06l-1.21,3.45h-2.89l6.04-16.89h3.2l6.04,16.89h-2.91l-1.21-3.45Zm-.76-2.16-2.77-7.94-2.79,7.94Z" fill="#03014b"/>
      <path id="Path_21" data-name="Path 21" d="M488.61,129.73l-3.88-6.75h-2.11v6.75h-2.77V112.86h5.83a7.308,7.308,0,0,1,3.29.68,4.646,4.646,0,0,1,2.01,1.82,5,5,0,0,1,.67,2.55,5.058,5.058,0,0,1-.96,3,4.834,4.834,0,0,1-2.95,1.83l4.17,6.99h-3.3Zm-6-8.93h3.06a3.178,3.178,0,0,0,2.34-.78,2.813,2.813,0,0,0,.79-2.11,2.854,2.854,0,0,0-.78-2.12,3.226,3.226,0,0,0-2.35-.76h-3.06v5.78Z" fill="#03014b"/>
      <path id="Path_22" data-name="Path 22" d="M505.41,113.9a7.4,7.4,0,0,1,3.13,2.96,9.693,9.693,0,0,1,0,8.97,7.32,7.32,0,0,1-3.13,2.9,10.483,10.483,0,0,1-4.72,1.01h-5.51V112.87h5.51a10.227,10.227,0,0,1,4.72,1.03Zm-.19,12.05a7.435,7.435,0,0,0,0-9.19,5.966,5.966,0,0,0-4.53-1.66h-2.74v12.52h2.74A5.97,5.97,0,0,0,505.22,125.95Z" fill="#03014b"/>
      <path id="Path_23" data-name="Path 23" d="M531,122.5a4.21,4.21,0,0,1,.95,2.69,4.143,4.143,0,0,1-.67,2.32,4.58,4.58,0,0,1-1.93,1.63,6.77,6.77,0,0,1-2.94.59h-6.75V112.86h6.43a6.855,6.855,0,0,1,2.96.58,4.363,4.363,0,0,1,1.87,1.57,4.005,4.005,0,0,1,.63,2.2,3.766,3.766,0,0,1-.78,2.43,4.5,4.5,0,0,1-2.09,1.43,3.754,3.754,0,0,1,2.31,1.43Zm-8.56-2.47h3.42a3.129,3.129,0,0,0,2.12-.66,2.264,2.264,0,0,0,.76-1.82,2.363,2.363,0,0,0-.76-1.86,3.1,3.1,0,0,0-2.12-.67h-3.42v5Zm5.94,6.84a2.489,2.489,0,0,0,.8-1.97,2.46,2.46,0,0,0-.85-1.98,3.293,3.293,0,0,0-2.26-.74h-3.64v5.39h3.74A3.238,3.238,0,0,0,528.38,126.87Z" fill="#03014b"/>
      <path id="Path_24" data-name="Path 24" d="M537.73,115v5.12h5.83v2.14h-5.83v5.32h6.55v2.16h-9.32V112.85h9.32v2.16h-6.55Z" fill="#03014b"/>
      <path id="Path_25" data-name="Path 25" d="M558.58,112.87v2.16h-4.49v14.71h-2.77V115.03h-4.51v-2.16Z" fill="#03014b"/>
      <path id="Path_26" data-name="Path 26" d="M572.26,112.87v2.16h-4.49v14.71H565V115.03h-4.51v-2.16Z" fill="#03014b"/>
      <path id="Path_27" data-name="Path 27" d="M577.82,115v5.12h5.83v2.14h-5.83v5.32h6.55v2.16h-9.32V112.85h9.32v2.16h-6.55Z" fill="#03014b"/>
      <path id="Path_28" data-name="Path 28" d="M596.53,129.73l-3.88-6.75h-2.11v6.75h-2.77V112.86h5.83a7.308,7.308,0,0,1,3.29.68,4.646,4.646,0,0,1,2.01,1.82,5,5,0,0,1,.67,2.55,5.058,5.058,0,0,1-.96,3,4.834,4.834,0,0,1-2.95,1.83l4.17,6.99h-3.3Zm-5.99-8.93h3.06a3.178,3.178,0,0,0,2.34-.78,2.813,2.813,0,0,0,.79-2.11,2.854,2.854,0,0,0-.78-2.12,3.226,3.226,0,0,0-2.35-.76h-3.06v5.78Z" fill="#03014b"/>
      <path id="Path_29" data-name="Path 29" d="M623.86,112.87v16.87h-2.77v-7.45h-7.94v7.45h-2.77V112.87h2.77v7.28h7.94v-7.28Z" fill="#03014b"/>
      <path id="Path_30" data-name="Path 30" d="M630.27,115v5.12h5.83v2.14h-5.83v5.32h6.55v2.16H627.5V112.85h9.32v2.16h-6.55Z" fill="#03014b"/>
      <path id="Path_31" data-name="Path 31" d="M650.39,126.29h-7.06l-1.21,3.45h-2.89l6.04-16.89h3.2l6.04,16.89H651.6l-1.21-3.45Zm-.76-2.16-2.77-7.94-2.79,7.94Z" fill="#03014b"/>
      <path id="Path_32" data-name="Path 32" d="M659.9,127.62h5.7v2.11h-8.47V112.86h2.77v14.76Z" fill="#03014b"/>
      <path id="Path_33" data-name="Path 33" d="M678.81,112.87v2.16h-4.49v14.71h-2.77V115.03h-4.51v-2.16Z" fill="#03014b"/>
      <path id="Path_34" data-name="Path 34" d="M695.07,112.87v16.87H692.3v-7.45h-7.94v7.45h-2.77V112.87h2.77v7.28h7.94v-7.28Z" fill="#03014b"/>
    </g>
    <path id="Path_35" data-name="Path 35" d="M208.75,48.8c-.32.44-1.86,2.14-3.4,3.74l9.79,9.86c.77-.77,1.7-1.62,2.35-2.35,8.86-9.91,11.3-22.67,5.92-34.98A31.926,31.926,0,0,0,195.19,5.83H150.44V35.88c3.64-3.5,8.01-6.93,13.06-8.05a4.465,4.465,0,0,1,.87-.22V19.99c.23-.36.83-.22,1.19-.22,9.34-.12,20.21-.59,29.4,0a18.339,18.339,0,0,1,13.78,29.04Z" fill="#03014b"/>
    <path id="Path_36" data-name="Path 36" d="M164.38,27.61V19.99c.23-.36.83-.22,1.19-.22,9.34-.12,20.21-.59,29.4,0a18.339,18.339,0,0,1,13.78,29.04c-.32.44-1.86,2.14-3.4,3.74l9.79,9.86c.77-.77,1.7-1.62,2.35-2.35,8.86-9.91,11.3-22.67,5.92-34.98A31.926,31.926,0,0,0,195.19,5.84H150.44V35.89c3.64-3.5,8.01-6.93,13.06-8.05a4.465,4.465,0,0,1,.87-.22Z" fill="#03014b"/>
    <path id="Path_37" data-name="Path 37" d="M255.22,109.32c-12.51-12.76-32.21-32.27-39.72-40.04l-.31-.14-15.47-15.5.08-.13L184.95,38.69c-5.35-4.76-13.79-6.32-20.58-4.13-12.52,4.03-17.99,20.07-10.74,31.02a21,21,0,0,0,6.19,28.72,21.219,21.219,0,0,0,23.93-.74c3.33-2.49,7.95-7.75,11.1-10.88.45-.45,2.12-2.24,3.76-3.93l-5.96-6.05-.02.01-3.56-3.59-.03-.06-.13-.13L175.8,82.01a6.957,6.957,0,0,1-11.33-6.97c.82-3.34,6.04-6.76,8.17-9.46a11.1,11.1,0,0,1-1.38-1.56c-2.13-2.26-6.45-5.28-6.87-8.48a6.722,6.722,0,0,1,1.51-5.64,6.8,6.8,0,0,1,8.35-1.83c5.96,4.9,11.09,10.81,16.67,16.17l.02-.02L202.06,75.5a.256.256,0,0,1,.05-.02l53.42,54.21-.32-20.41Z" fill="#43e2b8"/>
  </g>
</svg>
